<svg xmlns="http://www.w3.org/2000/svg" xmlns:xlink="http://www.w3.org/1999/xlink" class="svg-top svg-workout" data-height="142" data-width="217" logoid="63" version="1.1" viewBox="0 0 217 142" x="0" y="0">               <g data-gtagadded="1"><svg class="svg-icon" data-default-height="33.47464682021808" data-default-width="36.66666666666667" data-icon-height="brandname" data-raw-fill="#FFFFFF" data-raw-height="60" data-raw-icon-id="47655" data-raw-width="60" data-raw-x="0" data-raw-y="0" fill="#008094" height="33.47464682021808" icon-type="icon" width="36.66666666666667" x="16.5" y="56">    <svg enable-background="new 0 0 100 100" version="1.1" viewBox="0 0 100 100" x="0px" xml:space="preserve" xmlns="http://www.w3.org/2000/svg" xmlns:xlink="http://www.w3.org/1999/xlink" y="0px"><g><g><path d="M70.112,18.125l-1.167-0.544l1.86-3.997c0.291-0.618,0.025-1.353-0.593-1.643l-5.264-2.453    c-0.297-0.136-0.636-0.154-0.945-0.043c-0.309,0.117-0.562,0.346-0.698,0.643l-1.86,3.997l-1.168-0.544    c-0.618-0.291-1.353-0.025-1.643,0.593l-5.752,12.332L31.374,72.587c-0.006,0.019-0.012,0.043-0.025,0.062    c-0.012,0.037-0.025,0.074-0.037,0.111c-0.018,0.068-0.031,0.142-0.043,0.216c0,0.006-0.006,0.012,0,0.025l-1.606,16.267    c-0.056,0.525,0.228,1.02,0.704,1.242c0.167,0.08,0.346,0.118,0.525,0.118c0.321,0,0.643-0.13,0.884-0.371l11.356-11.615    c0.025-0.025,0.056-0.049,0.081-0.08c0.056-0.056,0.105-0.124,0.154-0.185c0.031-0.049,0.062-0.105,0.086-0.161l0.025-0.056    l21.476-46.053l5.752-12.338c0.142-0.297,0.154-0.636,0.043-0.945C70.637,18.515,70.408,18.261,70.112,18.125z M65.021,12.25    l3.021,1.409l-0.889,1.915l-3.021-1.409L65.021,12.25z M32.468,86.012l1.087-11.047l6.673,3.114L32.468,86.012z M62.71,31.063    L41.735,76.047l-7.593-3.534L55.123,27.51l5.227-11.207l7.593,3.54L62.71,31.063z"/></g></g><g><g><path d="M24.401,61.299c-0.25,0-0.503-0.076-0.721-0.233L5.513,47.978C5.191,47.746,5,47.372,5,46.975    c0-0.397,0.191-0.77,0.513-1.002L23.68,32.885c0.554-0.399,1.326-0.273,1.725,0.28c0.399,0.554,0.273,1.326-0.281,1.725    L8.35,46.975L25.125,59.06c0.554,0.399,0.679,1.171,0.281,1.725C25.163,61.12,24.785,61.299,24.401,61.299z"/></g></g><g><g><path d="M75.598,61.299c-0.384,0-0.762-0.178-1.004-0.513c-0.399-0.554-0.273-1.326,0.281-1.725L91.65,46.975    L74.875,34.89c-0.554-0.399-0.679-1.171-0.281-1.725c0.399-0.554,1.17-0.68,1.725-0.28l18.167,13.088    C94.809,46.205,95,46.578,95,46.975c0,0.397-0.191,0.77-0.513,1.002L76.319,61.065C76.101,61.223,75.848,61.299,75.598,61.299z"/></g></g></svg>    </svg><svg class="svgText" fill="#008094" font-family="Bree Serif" x="52.5" y="51.99999892"><path d="M22.00 10.30L22.00 12.33L21.18 12.40L21.18 12.40Q20.53 12.45 20.35 13.30L20.35 13.30L17.20 26.93L13.78 26.93L11.15 15.80L11.08 15.80L8.53 26.93L5.00 26.93L1.55 12.50L0.13 12.43L0.13 10.30L6.33 10.30L6.33 12.33L5.50 12.40L5.50 12.40Q4.73 12.48 4.73 13.05L4.73 13.05L4.73 13.05Q4.73 13.15 4.75 13.28L4.75 13.28L6.93 22.93L7.03 22.93L9.63 11.63L12.85 11.63L15.55 22.98L15.60 22.98L17.73 12.53L16.38 12.43L16.38 10.30L22.00 10.30ZM37.85 22.48L37.85 26.93L25.98 26.93L25.98 24.90L26.80 24.83L26.80 24.83Q27.53 24.75 27.53 24.13L27.53 24.13L27.53 12.50L26.10 12.43L26.10 10.30L37.55 10.30L37.55 14.45L35.00 14.63L35.00 13.63L35.00 13.63Q35.00 13.20 34.88 13.03L34.88 13.03L34.88 13.03Q34.75 12.85 34.28 12.85L34.28 12.85L30.58 12.85L30.58 17.13L36.35 17.13L36.35 19.68L30.58 19.68L30.58 24.35L34.60 24.35L34.60 24.35Q35.05 24.35 35.18 24.16L35.18 24.16L35.18 24.16Q35.30 23.98 35.30 23.55L35.30 23.55L35.30 22.30L37.85 22.48ZM42.83 12.43L42.83 10.30L49.88 10.30L49.88 10.30Q55.28 10.30 55.28 14.48L55.28 14.48L55.28 14.48Q55.28 16.78 52.98 17.98L52.98 17.98L52.98 17.98Q54.45 18.35 55.29 19.35L55.29 19.35L55.29 19.35Q56.13 20.35 56.13 21.95L56.13 21.95L56.13 21.95Q56.13 24.38 54.49 25.65L54.49 25.65L54.49 25.65Q52.85 26.93 49.73 26.93L49.73 26.93L42.70 26.93L42.70 24.90L43.53 24.83L43.53 24.83Q44.25 24.75 44.25 24.13L44.25 24.13L44.25 12.50L42.83 12.43ZM49.78 19.35L47.30 19.35L47.30 24.58L49.65 24.58L49.65 24.58Q52.90 24.58 52.90 21.93L52.90 21.93L52.90 21.93Q52.90 20.68 52.09 20.01L52.09 20.01L52.09 20.01Q51.28 19.35 49.78 19.35L49.78 19.35ZM49.33 12.60L47.30 12.60L47.30 17.13L49.15 17.13L49.15 17.13Q50.70 17.13 51.44 16.49L51.44 16.49L51.44 16.49Q52.18 15.85 52.18 14.70L52.18 14.70L52.18 14.70Q52.18 13.55 51.44 13.08L51.44 13.08L51.44 13.08Q50.70 12.60 49.33 12.60L49.33 12.60ZM71.35 26.93L61.38 26.93L61.38 25.00L66.35 18.73L66.35 18.73Q67.13 17.73 67.38 17.39L67.38 17.39L67.38 17.39Q67.63 17.05 67.86 16.44L67.86 16.44L67.86 16.44Q68.10 15.83 68.10 14.96L68.10 14.96L68.10 14.96Q68.10 14.10 67.51 13.55L67.51 13.55L67.51 13.55Q66.93 13.00 66.01 13.00L66.01 13.00L66.01 13.00Q65.10 13.00 64.64 13.15L64.64 13.15L64.64 13.15Q64.18 13.30 64.09 13.49L64.09 13.49L64.09 13.49Q64.00 13.68 64.00 14.08L64.00 14.08L64.00 15.85L61.45 15.68L61.45 11.68L61.45 11.68Q63.80 10.50 66.28 10.50L66.28 10.50L66.28 10.50Q68.75 10.50 70.00 11.71L70.00 11.71L70.00 11.71Q71.25 12.93 71.25 15.03L71.25 15.03L71.25 15.03Q71.25 17.13 69.13 19.70L69.13 19.70L65.10 24.45L71.35 24.45L71.35 26.93ZM83.68 26.93L76.58 26.93L76.58 24.90L77.40 24.83L77.40 24.83Q78.13 24.75 78.13 24.13L78.13 24.13L78.13 12.50L76.70 12.43L76.70 10.30L83.55 10.30L83.55 10.30Q87.23 10.30 89.29 12.25L89.29 12.25L89.29 12.25Q91.35 14.20 91.35 18.03L91.35 18.03L91.35 18.03Q91.35 20.40 90.73 22.16L90.73 22.16L90.73 22.16Q90.10 23.93 89.03 24.93L89.03 24.93L89.03 24.93Q86.88 26.93 83.68 26.93L83.68 26.93ZM83.40 12.73L81.18 12.73L81.18 24.53L83.73 24.53L83.73 24.53Q85.88 24.53 87.08 22.98L87.08 22.98L87.08 22.98Q88.28 21.43 88.28 18.48L88.28 18.48L88.28 18.48Q88.28 12.73 83.40 12.73L83.40 12.73ZM97.05 24.13L97.05 24.13L101.08 12.48L99.50 12.33L99.50 10.30L105.23 10.30L110.33 24.73L110.35 24.73L111.78 24.80L111.78 26.93L105.33 26.93L105.33 24.90L106.28 24.83L106.28 24.83Q106.70 24.78 106.85 24.63L106.85 24.63L106.85 24.63Q107.00 24.48 106.88 24.08L106.88 24.08L106.35 22.53L100.50 22.53L99.75 24.73L101.25 24.80L101.25 26.93L95.48 26.93L95.48 24.90L96.30 24.83L96.30 24.83Q96.83 24.78 97.05 24.13ZM103.50 13.10L103.43 13.10L101.10 20.23L105.75 20.23L103.50 13.10ZM118.60 24.13L118.60 24.13L118.60 12.78L116.65 12.78L116.65 12.78Q116.08 12.78 116.08 13.55L116.08 13.55L116.08 14.73L113.53 14.55L113.53 10.30L126.60 10.30L126.60 14.55L124.05 14.73L124.05 13.55L124.05 13.55Q124.05 13.13 123.93 12.95L123.93 12.95L123.93 12.95Q123.80 12.78 123.33 12.78L123.33 12.78L121.63 12.78L121.63 24.73L123.60 24.80L123.60 26.93L116.55 26.93L116.55 24.90L117.88 24.83L117.88 24.83Q118.60 24.75 118.60 24.13ZM129.93 24.13L129.93 24.13L133.95 12.48L132.38 12.33L132.38 10.30L138.10 10.30L143.20 24.73L143.23 24.73L144.65 24.80L144.65 26.93L138.20 26.93L138.20 24.90L139.15 24.83L139.15 24.83Q139.58 24.78 139.73 24.63L139.73 24.63L139.73 24.63Q139.88 24.48 139.75 24.08L139.75 24.08L139.23 22.53L133.38 22.53L132.63 24.73L134.13 24.80L134.13 26.93L128.35 26.93L128.35 24.90L129.18 24.83L129.18 24.83Q129.70 24.78 129.93 24.13ZM136.38 13.10L136.30 13.10L133.98 20.23L138.63 20.23L136.38 13.10Z"/></svg><svg class="svgSlogan" fill="#008094" font-family="Bree Serif" x="52.5" y="78.59999892"><path d=""/></svg></g></svg>